<?xml version="1.0" encoding="utf-8"?>
<!-- Generator: Adobe Illustrator 15.0.0, SVG Export Plug-In . SVG Version: 6.00 Build 0)  -->
<!DOCTYPE svg PUBLIC "-//W3C//DTD SVG 1.1//EN" "http://www.w3.org/Graphics/SVG/1.1/DTD/svg11.dtd">
<svg version="1.1" id="Layer_1" xmlns="http://www.w3.org/2000/svg" xmlns:xlink="http://www.w3.org/1999/xlink" x="0px" y="0px"
	 width="16px" height="16px" viewBox="0 0 16 16" enable-background="new 0 0 16 16" xml:space="preserve">
<g>
	<g>
		<path d="M59.169,55.387V27.558c1.146-1.027,1.87-2.52,1.87-4.177L61.02,2.401H3.187L3.158,23.381c0,1.611,0.683,3.065,1.772,4.092
			v27.914H2.616v6.212h58.768v-6.212H59.169z M49.813,11.737v11.644c0,2.048-1.669,3.718-3.718,3.718
			c-2.051,0-3.718-1.67-3.718-3.718V11.737H49.813z M31.148,11.737v11.644c0,2.048-1.667,3.718-3.716,3.718
			c-2.032,0-3.689-1.641-3.717-3.666c0-0.02,0-0.036,0-0.052V11.737H31.148z M21.819,11.737v11.644c0,0.016,0,0.033,0,0.052
			c-0.028,2.025-1.685,3.666-3.717,3.666c-2.051,0-3.718-1.67-3.718-3.718V11.737H21.819z M5.053,23.381V11.737h7.435v11.644
			c0,2.048-1.667,3.718-3.716,3.718S5.053,25.429,5.053,23.381z M37.449,46.04H9.977V32.281h27.472V46.04z M40.479,23.381
			c0,2.048-1.667,3.718-3.716,3.718c-2.05,0-3.719-1.67-3.719-3.718V11.737h7.435V23.381z M53.867,54.625H42.04V32.281h11.827
			V54.625z M59.143,23.381c0,2.048-1.667,3.718-3.718,3.718c-2.048,0-3.717-1.67-3.717-3.718V11.737h7.435V23.381z"/>
	</g>
</g>
</svg>
