<?xml version="1.0" encoding="utf-8"?>
<!-- Generator: Adobe Illustrator 16.0.0, SVG Export Plug-In . SVG Version: 6.00 Build 0)  -->
<!DOCTYPE svg PUBLIC "-//W3C//DTD SVG 1.1//EN" "http://www.w3.org/Graphics/SVG/1.1/DTD/svg11.dtd">
<svg version="1.1" id="Capa_1" xmlns="http://www.w3.org/2000/svg" xmlns:xlink="http://www.w3.org/1999/xlink" x="0px" y="0px"
	 width="9px" height="12px" viewBox="0 0 12 12" enable-background="new 0 0 12 12" xml:space="preserve">
<path d="M52.723,20.658l-3.836-3.855l1.789-5.139l-5.135-1.802l-0.617-5.406l-5.408,0.596L36.611,0.45L32,3.341l-4.61-2.891
	l-2.903,4.602L19.08,4.456L18.46,9.861l-5.135,1.802l1.789,5.139l-3.838,3.856l3.838,3.857l-1.789,5.137l5.134,1.802l0.618,5.405
	l5.407-0.596l0.086,27.287L32,55.533l7.428,8.018l0.086-27.287l5.406,0.598l0.621-5.406l5.135-1.802l-1.789-5.139L52.723,20.658z
	 M32,33.854c-7.275,0-13.195-5.919-13.195-13.195c0-7.275,5.92-13.195,13.195-13.195c7.276,0,13.196,5.92,13.196,13.195
	C45.195,27.934,39.275,33.854,32,33.854z M42.902,20.658c0,6.011-4.891,10.902-10.903,10.902c-6.011,0-10.902-4.891-10.902-10.902
	c0-6.011,4.892-10.902,10.902-10.902C38.012,9.756,42.902,14.647,42.902,20.658z"/>
</svg>
