<?xml version="1.0" encoding="utf-8"?>
<!-- Generator: Adobe Illustrator 16.0.4, SVG Export Plug-In . SVG Version: 6.00 Build 0)  -->
<!DOCTYPE svg PUBLIC "-//W3C//DTD SVG 1.1//EN" "http://www.w3.org/Graphics/SVG/1.1/DTD/svg11.dtd">
<svg version="1.1" id="Layer_1" xmlns="http://www.w3.org/2000/svg" xmlns:xlink="http://www.w3.org/1999/xlink" x="0px" y="0px"
	 width="50px" height="50px" viewBox="0 0 50 50" enable-background="new 0 0 50 50" xml:space="preserve">
<path fill="#FFFFFF" d="M30.421,30.135c0.14,0.238,0.058,0.545-0.182,0.684c-1.578,0.916-3.382,1.398-5.217,1.402l0,0c-0.276,0-0.5-0.225-0.5-0.5
	s0.223-0.5,0.5-0.5c1.66-0.004,3.291-0.439,4.717-1.268C29.977,29.814,30.283,29.896,30.421,30.135z M20.301,29.963
	c-1.432-0.824-2.629-2.02-3.46-3.449c-0.139-0.24-0.446-0.32-0.683-0.182c-0.239,0.139-0.32,0.445-0.181,0.684
	c0.919,1.582,2.242,2.9,3.825,3.814c0.079,0.045,0.165,0.066,0.25,0.066c0.173,0,0.341-0.09,0.434-0.25
	C20.623,30.406,20.54,30.102,20.301,29.963z M16.638,16.394c-0.239-0.138-0.544-0.056-0.683,0.185
	c-0.906,1.573-1.385,3.373-1.385,5.2v0.02c0,0.276,0.224,0.49,0.5,0.49c0.276,0,0.5-0.232,0.5-0.51c0-1.652,0.433-3.278,1.252-4.702
	C16.96,16.836,16.877,16.531,16.638,16.394z M29.705,13.583c1.436,0.823,2.633,2.015,3.468,3.442
	c0.093,0.158,0.261,0.248,0.433,0.248c0.084,0,0.172-0.021,0.25-0.068c0.24-0.139,0.319-0.445,0.181-0.684
	c-0.922-1.58-2.248-2.896-3.833-3.807c-0.241-0.138-0.546-0.056-0.684,0.186C29.382,13.14,29.465,13.445,29.705,13.583z
	 M20.017,13.679c0.085,0,0.172-0.021,0.251-0.068c1.425-0.828,3.055-1.27,4.714-1.274c0.276-0.001,0.5-0.226,0.499-0.502
	c-0.001-0.274-0.225-0.498-0.5-0.498H24.98c-1.835,0.006-3.638,0.494-5.214,1.412c-0.239,0.14-0.319,0.444-0.181,0.685
	C19.677,13.59,19.845,13.679,20.017,13.679z M35.453,21.736c0-0.275-0.225-0.479-0.5-0.479s-0.5,0.244-0.5,0.521
	c0,1.658-0.438,3.291-1.262,4.719c-0.139,0.238-0.057,0.545,0.183,0.684c0.079,0.045,0.165,0.066,0.25,0.066
	c0.173,0,0.341-0.09,0.435-0.25c0.912-1.581,1.396-3.385,1.396-5.237l-0.5-0.022h0.499V21.736z M26.049,22.279
	c-0.207-0.076-0.52-0.115-0.942-0.115h-0.961v1.607c0.004,0.229,0.012,0.361,0.026,0.398c0.017,0.049,0.047,0.084,0.088,0.104
	c0.041,0.021,0.151,0.029,0.331,0.029h0.543c0.314,0,0.576-0.029,0.784-0.087c0.207-0.058,0.383-0.182,0.527-0.364
	c0.146-0.184,0.218-0.408,0.218-0.666c0-0.22-0.05-0.404-0.153-0.56C26.408,22.476,26.254,22.357,26.049,22.279z M25.907,20.965
	c0.204-0.071,0.356-0.179,0.46-0.323c0.102-0.142,0.154-0.309,0.154-0.496c0-0.195-0.049-0.361-0.146-0.5
	c-0.098-0.14-0.238-0.236-0.424-0.295c-0.184-0.061-0.515-0.09-0.989-0.09h-0.815v1.811h0.815
	C25.388,21.07,25.702,21.037,25.907,20.965z M33.475,21.777c0,4.674-3.791,8.461-8.463,8.461c-4.673,0-8.461-3.787-8.461-8.461
	c0-4.674,3.788-8.463,8.461-8.463C29.684,13.314,33.475,17.103,33.475,21.777z M28.593,23.382c0-0.33-0.079-0.63-0.233-0.896
	c-0.156-0.269-0.368-0.477-0.633-0.625c-0.186-0.107-0.453-0.204-0.799-0.293c0.324-0.11,0.586-0.248,0.783-0.418
	c0.198-0.17,0.348-0.363,0.453-0.582c0.105-0.221,0.158-0.453,0.158-0.698c0-0.337-0.1-0.646-0.297-0.931
	c-0.199-0.281-0.483-0.498-0.853-0.648c-0.143-0.059-0.312-0.102-0.498-0.139v-1.31h-1.258v1.222h-0.808v-1.222H23.35v1.222h-1.919
	v1.026h0.294c0.195,0,0.327,0.019,0.396,0.054c0.071,0.035,0.119,0.084,0.146,0.146c0.029,0.06,0.043,0.2,0.043,0.42v4.144
	c0,0.217-0.014,0.354-0.043,0.418c-0.028,0.062-0.076,0.108-0.146,0.144c-0.068,0.033-0.2,0.052-0.396,0.052h-0.294v1.025h1.919
	v1.223h1.259V25.49h0.714c0.032,0,0.063-0.001,0.094-0.001v1.224h1.258v-1.328c0.212-0.04,0.396-0.092,0.556-0.155
	c0.434-0.174,0.77-0.426,1.006-0.76C28.475,24.14,28.593,23.777,28.593,23.382z M17.833,33.16h-0.026l-3.561,7.828l3.831-0.139
	l2.414,2.98l3.605-7.926l-4.023,2.881L17.833,33.16z M32.165,33.16l-2.242,5.627l-3.964-2.84l3.586,7.885l2.412-2.982l3.833,0.139
	l-3.563-7.826L32.165,33.16z M35.924,27l1.051,5.389l-5.482-0.275l-2.03,5.1l-4.461-3.191l-4.467,3.191l-2.027-5.1l-5.481,0.275
	L14.078,27l-4.76-2.733l3.792-3.965l-2.523-4.873l5.336-1.281l0.512-5.465l5.182,1.805l3.385-4.319l3.385,4.319l5.178-1.805
	l0.512,5.465l5.335,1.281l-2.524,4.873l3.795,3.965L35.924,27z M36.285,21.689c0-6.229-5.053-11.283-11.284-11.283
	c-6.235,0-11.288,5.055-11.288,11.283c0,6.233,5.053,11.286,11.288,11.286C31.23,32.977,36.285,27.922,36.285,21.689z"/>
</svg>
